<?xml version="1.0" encoding="iso-8859-1"?>
<!-- Uploaded to: SVG Repo, www.svgrepo.com, Generator: SVG Repo Mixer Tools -->
<!DOCTYPE svg PUBLIC "-//W3C//DTD SVG 1.1//EN" "http://www.w3.org/Graphics/SVG/1.1/DTD/svg11.dtd">
<svg fill="#000000" version="1.1" id="Capa_1" xmlns="http://www.w3.org/2000/svg" xmlns:xlink="http://www.w3.org/1999/xlink" 
	 width="800px" height="800px" viewBox="0 0 267.735 267.735"
	 xml:space="preserve">
<g>
	<path d="M212.443,18.096c-1.032,0-2.09,0.036-3.152,0.105c-3.477,0.27-7.188,0.399-10.923,0.399
		c-22.163,0-44.352-4.792-65.81-9.439C108.377,3.934,83.484-1.483,59.276,0.372C45.429,1.246,33.969,16.108,30.919,30.411
		c-0.475,0.874-0.817,1.826-0.817,2.895v4.281v84.5v139.5c0,3.393,2.747,6.148,6.149,6.148c3.393,0,6.149-2.756,6.149-6.148V140.513
		c4.461,1.723,9.869,2.479,15.937,2.012c4.183-0.373,8.62-0.571,13.142-0.571c21.41,0,42.862,4.342,63.603,8.539
		c20.149,4.077,40.985,8.299,61.174,8.299c4.144,0,8.214-0.181,12.105-0.528c16.255-1.262,29.273-21.281,29.273-37.02V38.428
		C237.628,20.074,220.004,18.096,212.443,18.096z"/>
</g>
</svg>